<?xml version="1.0" encoding="utf-8"?>
<svg version="1.1" xmlns="http://www.w3.org/2000/svg" xmlns:xlink="http://www.w3.org/1999/xlink" x="0px" y="0px" viewBox="0 0 1000 1000" enable-background="new 0 0 1000 1000" xml:space="preserve">
<g>
    <g transform="translate(0.000000,512.000000) scale(0.100000,-0.100000)">
        <!-- arrow -->
        <path style="fill: #bcbcbc; stroke-linecap:butt; stroke-linejoin:miter; stroke-miterlimit:4;"
            d="M393.9,5002c-182.2-49.9-320.3-258.9-289.6-433.4C119.6,4493.8,1742.1,19.4,1786.2-65c65.2-126.6,216.7-218.6,352.9-218.6c99.7,0,258.9,78.6,312.6,153.4c23,32.6,216.7,492.9,429.6,1022.2l385.5,962.8l962.8,385.5c529.3,212.9,989.6,406.6,1022.2,429.6c74.8,53.7,153.4,212.9,153.4,312.6c0,136.2-92.1,287.7-216.7,351c-86.3,46-4566.4,1670.4-4637.4,1681.9C514.7,5021.2,443.7,5015.4,393.9,5002z M2507.4,3463.9c713.4-258.9,1309.9-479.5,1325.2-487.1c23-13.4,19.2-21.1-19.2-36.4c-907.1-358.6-1068.3-429.6-1135.4-496.7c-59.4-59.4-105.5-159.2-285.8-608c-117-295.3-218.6-544.7-222.5-554.2c-5.7-9.6-17.3-3.8-24.9,9.6c-19.2,32.6-958.9,2615.9-958.9,2633.2c0,5.7,5.8,11.5,11.5,11.5C1203.2,3935.7,1793.9,3722.8,2507.4,3463.9z"/>

        <!-- circle 
        <path style="fill: #bcbcbc; stroke-linecap:butt; stroke-linejoin:miter; stroke-miterlimit:4; "
            d="M6212.7,1718.7C5353.5,1601.7,4590.2,1160.6,4057,474C3690.7,0.2,3481.6-508,3401.1-1114c-176.4-1359.8,546.6-2708,1783.6-3319.8c414.3-205.2,780.6-304.9,1221.7-335.6C8207.2-4896,9766.5-3544,9891.1-1746.9c42.2,598.4-65.2,1137.3-335.6,1683.9C8941.8,1179.7,7582,1904.7,6212.7,1718.7z M6953,922.7C8009.7,778.9,8828.6,13.7,9051.1-1037.3c32.6-147.7,42.2-262.8,42.2-473.7c0-312.6-30.7-514-124.7-792.1c-203.3-608-659.7-1129.6-1248.5-1425C7162-4010,6419.8-4052.2,5823.3-3839.3C4787.7-3467.2,4131.8-2487.2,4183.6-1396C4216.2-766.9,4454-233.7,4904.7,217c402.8,402.7,884.1,640.6,1449.9,713.4C6479.2,947.7,6811,941.9,6953,922.7z"/>
        -->

        <!-- ? top --> 
        <path style="fill: #bcbcbc; stroke-linecap:butt; stroke-linejoin:miter; stroke-miterlimit:4; "
            d="M6392.9,493.1c-257-55.6-416.2-145.7-615.6-343.3C5658.4,30.9,5604.7-40,5552.9-149.3c-74.8-155.3-128.5-349.1-128.5-464.1v-72.9h402.7h402.8v47.9c0,65.2,59.4,178.4,128.5,243.6c262.8,249.3,696.2,51.8,696.2-318.4c0-193.7-187.9-395.1-370.1-395.1c-118.9,0-249.3-51.8-326-130.4c-113.2-117-128.5-193.7-128.5-678.9v-418.1h402.8h402.7v237.8v237.8l149.6,72.9c214.8,107.4,431.5,324.1,538.9,544.7c180.3,368.2,180.3,726.9,0,1093.2C7484.2,334,6916.5,608.2,6392.9,493.1z"/>

        <!-- period --> 
        <path style="fill: #bcbcbc; stroke-linecap:butt; stroke-linejoin:miter; stroke-miterlimit:4; "
            d="M6467.7-2794.1c-174.5-78.6-266.6-283.8-209.1-471.8c51.8-180.3,258.9-316.4,429.6-285.8c228.2,42.2,362.5,212.9,343.3,441.1C7008.6-2842,6719-2679,6467.7-2794.1z"/>
    </g>
</g>
</svg>
