<?xml version="1.0" encoding="utf-8"?>
<!-- Svg Vector Icons : http://www.onlinewebfonts.com/icon -->
<!DOCTYPE svg PUBLIC "-//W3C//DTD SVG 1.1//EN" "http://www.w3.org/Graphics/SVG/1.1/DTD/svg11.dtd">
<svg version="1.1" xmlns="http://www.w3.org/2000/svg" xmlns:xlink="http://www.w3.org/1999/xlink" x="0px" y="0px" viewBox="0 0 1000 1000" enable-background="new 0 0 1000 1000" xml:space="preserve">
<metadata> Svg Vector Icons : http://www.onlinewebfonts.com/icon </metadata>
<g>
    <g transform="translate(0.000000,511.000000) scale(0.100000,-0.100000)">
        <path d="M4543.7,4987.8C2688.6,4809.6,1108.9,3616.7,432.5,1881.1C167.2,1204.7,51.8,404.7,118.6-306.1C227.9-1480.8,712-2527.8,1516-3335.9c409.1-411.1,791.9-686.6,1306.3-939.7c465.8-230.9,866.8-360.5,1356.9-443.5c1569.5-265.3,3161.4,241,4283.3,1365C9483.2-2335.4,10011.8-887.4,9880.1,524.2c-62.8,658.2-208.6,1178.7-496.2,1761.9c-490.1,992.4-1275.9,1768-2280.4,2246C6311.7,4908.8,5406.4,5068.8,4543.7,4987.8z M5675.8,4536.2c1871.3-295.7,3355.8-1723.5,3716.3-3576.5c502.2-2586.2-1336.7-5046.9-3965.4-5306.1C3247.5-4561.1,1208.1-3129.3,665.4-1002.8C560.1-589.7,535.8-391.2,535.8,109c0,490.1,22.3,696.7,119.5,1081.5c155.9,613.7,451.6,1215.1,840.5,1701.2c747.3,937.7,1847,1543.2,3037.8,1672.8C4772.5,4588.8,5434.8,4572.6,5675.8,4536.2z" style="fill:#e6e6e6"/>
        <path d="M2143.8,88.8v-1883.5h202.5h202.5V88.8v1883.5h-202.5h-202.5V88.8z" style="fill:#e6e6e6"/>
        <path d="M4169,803.7c-496.2-380.7-901.2-702.7-901.2-712.9c0-12.2,407.1-326.1,907.3-700.7l905.3-678.4v567.1v567.1h1387.3h1387.3V109v263.3H6467.6H5080.4l-4.1,563l-6.1,563L4169,803.7z" style="fill:#e6e6e6"/>
    </g>
</g>
</svg>
