<?xml version="1.0" encoding="iso-8859-1"?>
<!-- Generator: Adobe Illustrator 16.0.0, SVG Export Plug-In . SVG Version: 6.00 Build 0)  -->
<!DOCTYPE svg PUBLIC "-//W3C//DTD SVG 1.1//EN" "http://www.w3.org/Graphics/SVG/1.1/DTD/svg11.dtd">
<svg version="1.1" id="Capa_1" xmlns="http://www.w3.org/2000/svg" xmlns:xlink="http://www.w3.org/1999/xlink" x="0px" y="0px"
	 width="317.763px" height="317.763px" viewBox="0 0 317.763 317.763" style="enable-background:new 0 0 317.763 317.763;"
	 xml:space="preserve">
<g>
	<g>
		<path d="M35.607,89.303c2.127,0.466,4.1,0.435,10.162-4.226c2.698-2.07,6.679-5.554,10.355-10.42l1.608-2.132
			c13.771-18.319,46.015-61.205,92.583-58.878c38.412,2.806,65.632,31.805,78.732,83.88c0.444,1.77,0.712,2.854,1.013,3.689
			c1.995,8.515,5.355,19.126,10.198,22.617c1.197,0.869,2.583,1.283,3.963,1.283c2.101,0,4.171-0.979,5.499-2.813
			c2.118-2.929,1.547-6.984-1.225-9.233c-1.342-1.728-3.854-8.98-5.353-15.461c-0.086-0.383-0.212-0.76-0.362-1.119
			c-0.131-0.441-0.37-1.406-0.589-2.272c-2.074-8.251-7.591-30.177-20.965-50.799c-17.268-26.625-40.822-41.192-70.012-43.297
			c-0.041-0.003-0.087-0.003-0.144-0.007C97.282-2.629,61.967,44.33,46.894,64.38l-1.588,2.104
			c-4.127,5.458-8.998,8.853-10.684,9.839c-0.568,0.219-1.114,0.523-1.629,0.914c-2.11,1.602-3.137,4.326-2.565,6.906
			C31.001,86.716,33.021,88.739,35.607,89.303z"/>
		<path d="M119.363,177.099c-19.59,12.166-49.765,30.08-72.49,39.796c-3.441,1.476-5.042,5.459-3.574,8.901
			c1.1,2.573,3.605,4.117,6.24,4.117c0.883,0,1.795-0.179,2.664-0.548c20.287-8.679,46.088-23.524,65.611-35.402
			C117.691,188.317,118.2,182.66,119.363,177.099z"/>
		<path d="M38.627,158.927c22.39-6.091,43.058-18.493,43.961-19.041c29.205-17.877,55.687-46.059,55.911-46.319
			c10.93-12.525,27.108-24.534,39.733-20.67c7.426,2.276,12.572,6.324,15.304,12.033c3.271,6.827,3.015,16.063-0.698,25.337
			c-1.103,2.751-2.607,5.602-4.438,8.511c1.013-0.041,2.019-0.147,3.038-0.147c4.073,0,8.073,0.407,12.016,1.047
			c0.715-1.451,1.386-2.909,1.975-4.373c5.119-12.785,5.243-25.991,0.336-36.237c-4.367-9.134-12.516-15.756-23.565-19.14
			c-16.214-4.962-35.871,4.045-53.88,24.674c-0.224,0.253-25.858,27.216-52.776,43.697c-0.2,0.117-19.905,11.94-40.486,17.545
			c-3.605,0.986-5.744,4.709-4.755,8.323C31.289,157.781,35.01,159.917,38.627,158.927z"/>
		<path d="M96.228,64.685c-3.073,3.391-5.838,7.029-8.817,10.506c-3.893,4.555-8.152,8.809-12.594,12.823
			c-4.574,4.127-8.268,7.081-13.668,10.174c-5.715,3.285-11.546,6.604-17.472,9.486c-2.033,0.996-3.785,1.643-6.076,2.331
			c-3.541,1.064-5.737,4.716-4.738,8.34c0.963,3.498,4.805,5.801,8.343,4.74c6.935-2.084,13.215-5.653,19.474-9.209
			c5.284-3.008,10.54-5.711,15.401-9.411c9.465-7.2,17.615-15.608,25.112-24.807c3.03-3.727,6.283-7.275,9.671-10.684
			c1.848-1.858,3.764-3.655,5.717-5.407c1.02-0.911,2.053-1.8,3.101-2.68c0.525-0.445,1.069-0.883,1.602-1.321
			c0.137-0.116,1.191-0.944,1.464-1.16c4.718-3.621,9.747-6.834,15.044-9.551c4.998-2.57,10.012-4.37,16.1-5.636
			c2.017-0.421,2.456-0.465,3.97-0.62c3.675-0.383,6.787-2.796,6.787-6.783c0-3.408-3.096-7.163-6.787-6.779
			C133.344,31.565,112.378,46.889,96.228,64.685z"/>
		<path d="M43.456,194.518c10.78-3.7,54.2-19.849,93.309-51.514c0.842-0.934,1.629-1.899,2.534-2.799
			c3.491-3.494,7.275-6.584,11.295-9.267c9.233-8.72,17.951-18.387,25.586-29.078c2.17-3.049,1.465-7.282-1.581-9.456
			c-3.053-2.176-7.289-1.468-9.459,1.581c-39.949,55.994-112.036,82.888-126.081,87.71c-0.301,0.103-0.487,0.171-0.554,0.198
			c-3.498,1.325-5.263,5.239-3.936,8.744c1.027,2.71,3.6,4.38,6.339,4.38c0.775,0,1.552-0.133,2.313-0.41L43.456,194.518z"/>
		<path d="M126.228,226.758c-2.169-4.11-3.895-8.388-5.229-12.762c-4.086,2.635-8.487,5.523-13.263,8.672
			c-16.933,11.159-36.119,23.808-44.467,26.053c-3.612,0.976-5.756,4.698-4.783,8.312c0.813,3.028,3.554,5.023,6.543,5.023
			c0.582,0,1.178-0.075,1.766-0.235c10.457-2.816,28.888-14.966,48.405-27.826C118.739,231.652,122.482,229.188,126.228,226.758z"/>
		<path d="M139.299,244.474c-0.267-0.267-0.487-0.554-0.746-0.821c-9.896,5.568-24.278,15.667-44.024,30.077
			c-3.613,2.639-6.743,4.918-8.904,6.455c-3.06,2.159-3.785,6.393-1.63,9.448c1.321,1.868,3.417,2.868,5.543,2.868
			c1.357,0,2.716-0.404,3.908-1.242c2.254-1.592,5.414-3.901,9.083-6.574c10.629-7.762,37.132-27.097,47.137-31.617
			C146,250.539,142.516,247.691,139.299,244.474z"/>
		<path d="M210.993,268.097c-1.896-0.688-4.223-1.81-6.789-3.189c-4.203,0.732-8.487,1.112-12.82,1.112
			c-4.756,0-9.438-0.469-14.003-1.341c1.245,0.763,2.437,1.498,3.538,2.18c9.603,5.931,18.679,11.536,25.465,13.986
			c3.518,1.276,7.409-0.548,8.686-4.069C216.339,273.254,214.511,269.371,210.993,268.097z"/>
		<path d="M188.092,301.809c-3.812-2.487-7.316-4.985-10.697-7.401c-11.122-7.939-20.738-14.802-31.273-12.974
			c-11.861,2.046-30.757,21.05-34.425,24.834c-2.601,2.69-2.534,6.981,0.158,9.586c1.314,1.276,3.017,1.909,4.717,1.909
			c1.772,0,3.545-0.688,4.873-2.063c9.084-9.38,21.982-20.036,26.987-20.902c4.955-0.849,12.436,4.477,21.089,10.649
			c3.333,2.379,7.111,5.079,11.166,7.721c3.135,2.047,7.337,1.164,9.384-1.975C192.109,308.058,191.227,303.856,188.092,301.809z"/>
		<path d="M284.665,282.313l-53.728-53.734c-0.671-0.66-1.41-1.178-2.19-1.622c12.129-17.785,12.327-41.281,0.644-59.271
			c3.58,2.221,7.454,4.15,11.52,5.865c3.408,1.438,7.234,1.061,9.273-2.434c1.688-2.874,0.976-7.836-2.43-9.277
			c-5.653-2.385-11.56-4.894-16.316-8.853c-5.236-4.356-7.669-10.078-8.761-16.687c-1.424-8.613-14.49-4.945-13.076,3.607
			c0.746,4.521,2.159,8.501,4.106,12.046c-20.745-13.497-48.848-11.163-67.035,7.022c-20.875,20.872-20.875,54.837,0,75.708
			c18.468,18.47,47.152,20.567,67.983,6.365c0.444,0.777,0.958,1.52,1.622,2.184l53.734,53.731c4.045,4.049,10.608,4.042,14.657,0
			C288.71,292.922,288.721,286.362,284.665,282.313z M212.615,224.917c-15.495,15.489-40.686,15.485-56.169,0
			c-15.489-15.485-15.489-40.683,0-56.171c15.484-15.489,40.681-15.485,56.169,0C228.104,184.231,228.104,209.428,212.615,224.917z"
			/>
	</g>
</g>
<g>
</g>
<g>
</g>
<g>
</g>
<g>
</g>
<g>
</g>
<g>
</g>
<g>
</g>
<g>
</g>
<g>
</g>
<g>
</g>
<g>
</g>
<g>
</g>
<g>
</g>
<g>
</g>
<g>
</g>
</svg>
