<?xml version="1.0" encoding="iso-8859-1"?>
<!-- Generator: Adobe Illustrator 16.0.0, SVG Export Plug-In . SVG Version: 6.00 Build 0)  -->
<!DOCTYPE svg PUBLIC "-//W3C//DTD SVG 1.1//EN" "http://www.w3.org/Graphics/SVG/1.1/DTD/svg11.dtd">
<svg xmlns="http://www.w3.org/2000/svg" xmlns:xlink="http://www.w3.org/1999/xlink" version="1.1" id="Capa_1" x="0px" y="0px" width="512px" height="512px" viewBox="0 0 47 47" style="enable-background:new 0 0 47 47;" xml:space="preserve">
<g>
	<path d="M33.399,17.041V9.903C33.399,4.439,28.958,0,23.498,0c-5.459,0-9.9,4.439-9.9,9.903v7.138H8.521V47h29.959V17.041H33.399z    M18.553,9.903c0-2.729,2.218-4.954,4.945-4.954c2.725,0,4.944,2.226,4.944,4.954v7.138h-9.89V9.903H18.553z M18.061,43.986   c0-3.6-2.926-6.526-6.526-6.526v-4.351c5.997,0,10.876,4.879,10.876,10.877H18.061z M24.589,43.986   c0-7.199-5.856-13.053-13.055-13.053v-4.352c9.597,0,17.404,7.807,17.404,17.402h-4.349V43.986z M31.113,43.986   c0-10.799-8.784-19.581-19.58-19.581v-4.351c13.195,0,23.932,10.735,23.932,23.932H31.113z" fill="#d1d1d1"/>
</g>
<g>
</g>
<g>
</g>
<g>
</g>
<g>
</g>
<g>
</g>
<g>
</g>
<g>
</g>
<g>
</g>
<g>
</g>
<g>
</g>
<g>
</g>
<g>
</g>
<g>
</g>
<g>
</g>
<g>
</g>
</svg>
