<?xml version="1.0" encoding="iso-8859-1"?>
<!-- Generator: Adobe Illustrator 19.0.0, SVG Export Plug-In . SVG Version: 6.00 Build 0)  -->
<svg version="1.1" id="Capa_1" xmlns="http://www.w3.org/2000/svg" xmlns:xlink="http://www.w3.org/1999/xlink" x="0px" y="0px"
	 viewBox="0 0 502.643 502.643" style="enable-background:new 0 0 502.643 502.643;" xml:space="preserve">
<g>
    <path style="fill:#fff;" d="M261.73,151.48l52.374-0.69c6.881-0.086,15.876,4.487,19.888,10.16l30.221,42.753
        c4.034,5.63,8.952,4.875,11.023-1.79l15.596-49.979c2.006-6.665,9.103-13.741,15.725-15.79l49.979-15.531
        c6.665-2.028,7.442-6.989,1.79-11.001l-42.775-30.264c-5.673-4.012-10.246-12.921-10.095-19.845l0.626-52.374
        c0.086-6.881-4.357-9.232-9.944-5.048l-41.955,31.321c-5.522,4.142-15.423,5.695-22.024,3.516l-49.57-16.868
        c-6.579-2.2-10.16,1.337-7.96,7.873l16.89,49.591c2.157,6.514,0.626,16.459-3.451,22.045l-31.385,41.934
        C252.498,147.08,254.827,151.523,261.73,151.48z"/>
    <path style="fill:#fff;" d="M498.793,432.202l0.863-0.884L75.811,7.56l-0.475,0.453c-0.065-0.022-0.065-0.086-0.129-0.108
        c-7.011-7.097-28.517,2.89-47.887,22.239C7.993,49.536-1.994,70.956,5.059,78.053c0.043,0.065,0.129,0.065,0.151,0.086
        l-0.496,0.518L428.515,502.48l0.841-0.906c8.413,4.444,28.107-5.285,46.075-23.296
        C493.508,460.244,503.193,440.572,498.793,432.202z M125.467,128.335c-10.246,10.246-21.053,17.753-30.027,21.635L32.756,86.919
        c8.93-3.904,19.608-11.389,29.789-21.528c10.117-10.16,17.515-20.73,21.463-29.617l62.836,63.202
        C142.918,107.842,135.476,118.304,125.467,128.335z"/>
</g>
</svg>
