<svg width="300" height="300" viewBox="0 0 300 300" fill="none" xmlns="http://www.w3.org/2000/svg">
<g>
    <path d="M300 150C300 232.843 232.843 300 150 300C67.1573 300 0 232.843 0 150C0 67.1573 67.1573 0 150 0C232.843 0 300 67.1573 300 150Z"/>
    <g>
        <path d="M242.768 90.5988C233.759 76.5301 221.6 64.5879 207.104 55.8007C185.204 42.5248 159.385 37.3067 134.092 40.9984C132.811 41.1854 131.95 42.3965 132.164 43.673L139.285 86.1203C139.499 87.3969 140.707 88.2535 141.991 88.0874C156.002 86.2746 170.241 89.2669 182.362 96.6148C190.413 101.495 197.192 108.092 202.265 115.858L190.518 123.184C188.968 124.15 189.07 126.44 190.7 127.264L256.911 160.747C258.482 161.541 260.335 160.386 260.313 158.626L259.375 84.4363C259.352 82.6098 257.341 81.5106 255.791 82.4772L242.768 90.5988Z" fill="darkgray"/>
        <path d="M173.805 48.586C174.846 47.167 174.01 45.1496 172.271 44.883L98.9314 33.6416C97.1259 33.3648 95.7118 35.1682 96.4111 36.8556L102.176 50.7662C82.4033 60.2951 65.8325 75.5654 54.7205 94.7168C41.8679 116.868 37.1471 142.782 41.3242 168C41.5358 169.277 42.7632 170.115 44.0354 169.876L86.338 161.941C87.6102 161.703 88.4434 160.478 88.2527 159.198C86.1709 145.224 88.889 130.93 96.0025 118.67C101.846 108.599 110.352 100.422 120.5 94.981L125.863 107.921C126.562 109.608 128.837 109.882 129.918 108.41L173.805 48.586Z" fill="red"/>
        <path d="M110.131 177.604C111.756 176.768 111.843 174.478 110.286 173.522L47.0643 134.689C45.5646 133.768 43.6226 134.767 43.4996 136.523L38.3117 210.537C38.184 212.359 40.0972 213.62 41.7216 212.785L53.1196 206.923C54.2243 206.355 55.5781 206.749 56.23 207.807C68.439 227.612 86.6565 243.115 108.335 251.973C132.042 261.659 158.36 262.774 182.764 255.171C184 254.786 184.661 253.455 184.249 252.228L170.577 211.417C170.165 210.19 168.838 209.533 167.596 209.897C154.041 213.88 139.509 213.152 126.387 207.791C115.373 203.29 105.935 195.763 99.1137 186.165C98.3096 185.034 98.7277 183.468 99.9622 182.833L110.131 177.604Z" fill="orange"/>
    </g>
</g>
</svg>
