<?xml version="1.0" encoding="iso-8859-1"?>
<!-- Generator: Adobe Illustrator 19.0.0, SVG Export Plug-In . SVG Version: 6.00 Build 0)  -->
<svg version="1.1" id="Layer_1" xmlns="http://www.w3.org/2000/svg" xmlns:xlink="http://www.w3.org/1999/xlink" x="0px" y="0px"
	 viewBox="0 0 511.999 511.999" style="enable-background:new 0 0 511.999 511.999;" fill="grey" xml:space="preserve">
<g>
	<g>
		<polygon points="272.916,132.64 272.916,215.954 314.913,173.958 		"/>
	</g>
</g>
<g>
	<g>
		<polygon points="272.916,297.633 272.916,380.947 314.913,339.629 		"/>
	</g>
</g>
<g>
	<g>
		<path d="M255.999,0c-89.216,0-161.8,72.584-161.8,161.8v188.398c0,89.217,72.584,161.8,161.8,161.8s161.8-72.584,161.8-161.8
			V161.8C417.801,72.584,345.217,0,255.999,0z M350.895,327.767c6.642,6.642,6.597,17.433-0.098,24.021l-82.933,81.593
			c-10.624,10.453-28.779,3.004-28.779-12.059V297.633l-54.056,54.056c-6.605,6.606-17.317,6.606-23.922,0
			c-6.606-6.606-6.606-17.317,0-23.923l70.972-70.972l-70.972-70.973c-6.606-6.606-6.606-17.317,0-23.922
			c6.606-6.606,17.317-6.606,23.922,0l54.056,54.056V92.267c0-14.965,18.103-22.562,28.779-12.059l82.933,81.593
			c6.697,6.587,6.74,17.379,0.098,24.021l-70.972,70.973L350.895,327.767z"/>
	</g>
</g>
<g>
</g>
<g>
</g>
<g>
</g>
<g>
</g>
<g>
</g>
<g>
</g>
<g>
</g>
<g>
</g>
<g>
</g>
<g>
</g>
<g>
</g>
<g>
</g>
<g>
</g>
<g>
</g>
<g>
</g>
</svg>
