<?xml version="1.0" encoding="UTF-8" standalone="no"?>
<!-- Created with Inkscape (http://www.inkscape.org/) -->

<svg
   xmlns:dc="http://purl.org/dc/elements/1.1/"
   xmlns:cc="http://creativecommons.org/ns#"
   xmlns:rdf="http://www.w3.org/1999/02/22-rdf-syntax-ns#"
   xmlns:svg="http://www.w3.org/2000/svg"
   xmlns="http://www.w3.org/2000/svg"
   xmlns:sodipodi="http://sodipodi.sourceforge.net/DTD/sodipodi-0.dtd"
   xmlns:inkscape="http://www.inkscape.org/namespaces/inkscape"
   width="28.334385mm"
   height="17.157795mm"
   viewBox="0 0 100.39743 60.795336"
   id="svg4258"
   version="1.1"
   inkscape:version="0.91 r13725"
   sodipodi:docname="10pc_gray_clipboard.svg">
  <defs
     id="defs4260" />
  <sodipodi:namedview
     id="base"
     pagecolor="#ffffff"
     bordercolor="#666666"
     borderopacity="1.0"
     inkscape:pageopacity="0.0"
     inkscape:pageshadow="2"
     inkscape:zoom="3.959798"
     inkscape:cx="0.033092118"
     inkscape:cy="3.9680386"
     inkscape:document-units="px"
     inkscape:current-layer="layer1"
     showgrid="false"
     fit-margin-top="0"
     fit-margin-left="0"
     fit-margin-right="0"
     fit-margin-bottom="0"
     inkscape:window-width="1920"
     inkscape:window-height="1031"
     inkscape:window-x="0"
     inkscape:window-y="21"
     inkscape:window-maximized="1" />
  <metadata
     id="metadata4263">
    <rdf:RDF>
      <cc:Work
         rdf:about="">
        <dc:format>image/svg+xml</dc:format>
        <dc:type
           rdf:resource="http://purl.org/dc/dcmitype/StillImage" />
        <dc:title></dc:title>
      </cc:Work>
    </rdf:RDF>
  </metadata>
  <g
     inkscape:label="Layer 1"
     inkscape:groupmode="layer"
     id="layer1"
     transform="translate(-314.57941,-386.79956)">
    <path
       inkscape:connector-curvature="0"
       d="m 363.84466,392.11319 c -1.76241,0 -3.14713,1.38475 -3.14713,3.14714 l 0,3.14716 -4.72073,0 c -0.88119,0 -1.57357,0.69236 -1.57357,1.57356 l 0,4.72071 18.88286,0 0,-4.72071 c 0,-0.8812 -0.69238,-1.57356 -1.57357,-1.57356 l -4.72073,0 0,-3.14716 c 0,-1.76239 -1.38472,-3.14714 -3.14713,-3.14714 z m -20.45642,6.2943 c -0.88119,0 -1.57357,0.69236 -1.57357,1.57356 l 0,40.91283 c 0,0.8812 0.69238,1.57357 1.57357,1.57357 l 40.91284,0 c 0.88119,0 1.57357,-0.69237 1.57357,-1.57357 l 0,-40.91283 c 0,-0.8812 -0.69238,-1.57356 -1.57357,-1.57356 l -4.72072,0 0,12.58854 -31.4714,0 0,-12.58854 -4.72072,0 z"
       id="path5426"
       style="fill:#e6e6e6" />
  </g>
</svg>
