<?xml version="1.0" encoding="iso-8859-1"?>
<!DOCTYPE svg PUBLIC "-//W3C//DTD SVG 1.1//EN" "http://www.w3.org/Graphics/SVG/1.1/DTD/svg11.dtd">
<svg version="1.1" id="Capa_1" xmlns="http://www.w3.org/2000/svg" xmlns:xlink="http://www.w3.org/1999/xlink" x="0px" y="0px"
     width="45px" height="40px" viewBox="-2 -5 43 40" style="enable-background:new 0 0 45 45;"
     xml:space="preserve">
<g>
	<path style="fill:#cccccc" d="M18,14.969c2.686,0,4.864-2.177,4.864-4.863c0-2.686-2.178-4.863-4.864-4.863s-4.863,2.178-4.863,4.863  C13.137,12.792,15.314,14.969,18,14.969z M18,8.358c0.965,0,1.748,0.782,1.748,1.747c0,0.966-0.783,1.748-1.748,1.748  c-0.964,0-1.747-0.782-1.747-1.748C16.253,9.141,17.036,8.358,18,8.358z"/>
    <path style="fill:#cccccc" d="M20.459,4.771V1.947c0-0.537-0.436-0.972-0.971-0.972h-2.975c-0.536,0-0.971,0.435-0.971,0.972v2.823  c0.749-0.348,1.58-0.546,2.458-0.546C18.879,4.225,19.71,4.424,20.459,4.771z"/>
    <path style="fill:#cccccc" d="M27.327,17.961c-0.249-0.248-0.651-0.248-0.899,0c-0.635,0.635-1.339,1.184-2.087,1.659l-1.396-6.343  c-0.661,1.027-1.631,1.835-2.781,2.291l1.212,5.419c-0.701,0.216-1.42,0.368-2.154,0.454v-0.867c0-0.808-0.547-1.464-1.222-1.464  s-1.222,0.656-1.222,1.464v0.867c-0.734-0.086-1.454-0.238-2.154-0.454l1.211-5.419c-1.149-0.457-2.119-1.265-2.781-2.292  l-1.396,6.344c-0.748-0.477-1.452-1.024-2.086-1.659c-0.249-0.248-0.651-0.249-0.899,0c-0.248,0.248-0.248,0.651,0,0.899  c0.811,0.812,1.72,1.505,2.695,2.079l-2.104,9.562c-0.063,0.282,0.011,0.556,0.167,0.772l1.671,3.751l0.932-3.338  c0.145-0.131,0.265-0.292,0.31-0.498l2.002-8.957c0.791,0.237,1.604,0.403,2.432,0.49v0.961c0,0.809,0.547,1.465,1.222,1.465  s1.222-0.656,1.222-1.465v-0.961c0.829-0.087,1.642-0.253,2.432-0.49l2.002,8.957c0.046,0.206,0.165,0.367,0.311,0.498l0.931,3.338  l1.67-3.751c0.156-0.217,0.23-0.49,0.167-0.772l-2.104-9.562c0.975-0.574,1.884-1.268,2.695-2.079  C27.575,18.612,27.575,18.209,27.327,17.961z"/>
</g>
</svg>
