<svg id="Layer_1" data-name="Layer 1" xmlns="http://www.w3.org/2000/svg" xmlns:xlink="http://www.w3.org/1999/xlink" viewBox="0 0 512 512"><defs><linearGradient id="linear-gradient" x1="256" y1="593.46" x2="256" y2="-81.46" gradientUnits="userSpaceOnUse"><stop offset="0" stop-color="#a0a0a0"/><stop offset="1" stop-color="#d0d0d0"/></linearGradient></defs><title>eject</title><path d="M491.29,478.59A33.61,33.61,0,0,1,457.69,512H54.33a33.59,33.59,0,0,1-33.59-33.41v-59a33.63,33.63,0,0,1,33.59-33.44H457.69a33.65,33.65,0,0,1,33.59,33.44ZM276.51,12c-11.29-16-29.76-16-41,0L26.16,308.44c-11.29,16-4.46,29.08,15.24,29.08H470.6c19.68,0,26.53-13.1,15.24-29.08Z" fill-rule="evenodd" fill="url(#linear-gradient)"/></svg>