<?xml version="1.0" encoding="UTF-8"?>
<!-- Generator: Adobe Illustrator 18.0.0, SVG Export Plug-In . SVG Version: 6.00 Build 0)  -->
<!DOCTYPE svg PUBLIC "-//W3C//DTD SVG 1.1//EN" "http://www.w3.org/Graphics/SVG/1.1/DTD/svg11.dtd">
<svg version="1.1" id="Layer_1" xmlns="http://www.w3.org/2000/svg" xmlns:xlink="http://www.w3.org/1999/xlink" x="0px" y="0px" viewBox="0 0 42 40" enable-background="new 0 0 42 40" xml:space="preserve">
<g>
	<path fill="#C9C9C9" d="M10,29c0.2-0.9,0.4-1.7,0.5-2.5c0.3-1.7,0.7-3.3,1-5c0.1-0.4,0.1-0.4,0.6-0.5c2.9,0,5.7,0,8.6,0   c0.5,0,0.5,0,0.4,0.5c-0.2,1.5-0.4,3-0.6,4.5c0,0.1,0,0.1,0,0.2c0.3-0.3,0.7-0.5,0.8-1c0.2-1.3,0.4-2.7,0.6-4   c0-0.2,0.1-0.3,0.2-0.4c3.2-3,6.5-6.1,9.7-9.1c0,0,0.1-0.1,0.2-0.1c0,0.3,0,0.6,0,0.9c0,1.5-0.1,2.9-0.1,4.4c0,0.1-0.1,0.3-0.2,0.4   c-3.7,3.9-7.5,7.9-11.3,11.8c-0.1,0.1-0.2,0.2-0.4,0.2c-3.2,0-6.4,0-9.6,0C10.4,29,10.2,29,10,29z"/>
	<path fill="#C9C9C9" d="M11.9,20.3c0.1-0.1,0.1-0.2,0.2-0.2c2.8-2.9,5.6-5.8,8.4-8.7c0.1-0.1,0.3-0.2,0.4-0.2   c3.4-0.1,6.9-0.1,10.3-0.2c0,0,0.1,0,0.2,0c-0.1,0.1-0.1,0.1-0.2,0.2c-3.2,3-6.4,5.9-9.5,8.9c-0.1,0.1-0.3,0.2-0.5,0.2   c-3,0-6,0-8.9,0C12.1,20.4,12,20.3,11.9,20.3z"/>
</g>
</svg>