<?xml version="1.0" encoding="UTF-8" standalone="no"?>
<!-- Created with Inkscape (http://www.inkscape.org/) -->

<svg
   xmlns:dc="http://purl.org/dc/elements/1.1/"
   xmlns:cc="http://creativecommons.org/ns#"
   xmlns:rdf="http://www.w3.org/1999/02/22-rdf-syntax-ns#"
   xmlns:svg="http://www.w3.org/2000/svg"
   xmlns="http://www.w3.org/2000/svg"
   xmlns:sodipodi="http://sodipodi.sourceforge.net/DTD/sodipodi-0.dtd"
   xmlns:inkscape="http://www.inkscape.org/namespaces/inkscape"
   width="28.334385mm"
   height="17.157795mm"
   viewBox="0 0 100.39743 60.795336"
   id="svg4258"
   version="1.1"
   inkscape:version="0.91 r13725"
   sodipodi:docname="10pc_gray_power_onoff.svg">
  <defs
     id="defs4260" />
  <sodipodi:namedview
     id="base"
     pagecolor="#ffffff"
     bordercolor="#666666"
     borderopacity="1.0"
     inkscape:pageopacity="0.0"
     inkscape:pageshadow="2"
     inkscape:zoom="3.959798"
     inkscape:cx="-46.898263"
     inkscape:cy="3.9680386"
     inkscape:document-units="px"
     inkscape:current-layer="layer1"
     showgrid="false"
     fit-margin-top="0"
     fit-margin-left="0"
     fit-margin-right="0"
     fit-margin-bottom="0"
     inkscape:window-width="1920"
     inkscape:window-height="1031"
     inkscape:window-x="0"
     inkscape:window-y="21"
     inkscape:window-maximized="1" />
  <metadata
     id="metadata4263">
    <rdf:RDF>
      <cc:Work
         rdf:about="">
        <dc:format>image/svg+xml</dc:format>
        <dc:type
           rdf:resource="http://purl.org/dc/dcmitype/StillImage" />
        <dc:title></dc:title>
      </cc:Work>
    </rdf:RDF>
  </metadata>
  <g
     inkscape:label="Layer 1"
     inkscape:groupmode="layer"
     id="layer1"
     transform="translate(-314.57941,-386.79956)">
    <path
       inkscape:connector-curvature="0"
       d="m 364.39763,394.85504 0,21.67767 5.41942,0 0,-21.67767 -5.41942,0 z m -6.93685,7.80396 -2.05938,1.68002 c -4.38973,3.46843 -7.26202,8.88785 -7.26202,14.9034 0,10.45947 8.50848,18.96796 18.96796,18.96796 10.45948,0 18.96796,-8.50849 18.96796,-18.96796 0,-6.01555 -2.87229,-11.43497 -7.26202,-14.9034 l -2.05938,-1.68002 -3.41423,4.22715 2.05938,1.68002 c 3.14326,2.49293 5.25683,6.34071 5.25683,10.67625 0,7.53299 -6.01555,13.54854 -13.54854,13.54854 -7.53299,0 -13.54854,-6.01555 -13.54854,-13.54854 0,-4.33554 1.95099,-8.18332 5.09425,-10.67625 l 2.22196,-1.68002 -3.41423,-4.22715 z"
       id="path4828"
       style="fill:#e6e6e6" />
  </g>
</svg>
