<?xml version="1.0" encoding="utf-8" standalone="yes"?>
<!DOCTYPE svg PUBLIC "-//W3C//DTD SVG 1.1//EN" "http://www.w3.org/Graphics/SVG/1.1/DTD/svg11.dtd">
<svg xmlns="http://www.w3.org/2000/svg" xmlns:xlink="http://www.w3.org/1999/xlink" xmlns:dc="http://purl.org/dc/elements/1.1/" xmlns:cc="http://web.resource.org/cc/" xmlns:rdf="http://www.w3.org/1999/02/22-rdf-syntax-ns#" xmlns:sodipodi="http://sodipodi.sourceforge.net/DTD/sodipodi-0.dtd" xmlns:inkscape="http://www.inkscape.org/namespaces/inkscape" height="500px" style="zoom: 1;" cursor="crosshair" id="svg_document" width="500px" baseProfile="full" version="1.1" preserveAspectRatio="xMidYMid meet" viewBox="0 0 500 500"><path d="M11,443 C11,443 57,451 80,426 C103,401 135,223 139,185 C143,147 154,71 169,71 C184,71 198,233 213,288 C228,343 226,384 257,406 C289,428 316,398 316,398 C316,398 338,340 347,263 C357,186 373,-26 389,29 C405,84 408,225 418,298 C428,371 451,416 473,425 C495,434 514,432 514,432" stroke-width="20px" stroke="#eee" fill="none"></path><path d="M11,443 C11,443 57,451 80,426 C103,401 115,381 128,318 C141,255 181,240 196,297 C211,354 207,332 213,357 C220,382 234,391 257,406 C280,421 285,420 302,410 C319,400 324,391 338,346 C352,301 389,287 405,319 C421,351 421,359 431,385 C441,411 451,416 473,425 C495,434 514,432 514,432 " stroke-width="20px" stroke="#ddd" fill="none"></path></svg>
