<?xml version="1.0" encoding="iso-8859-1"?>
<!DOCTYPE svg PUBLIC "-//W3C//DTD SVG 1.1//EN" "http://www.w3.org/Graphics/SVG/1.1/DTD/svg11.dtd">
<svg version="1.1" id="Capa_1" xmlns="http://www.w3.org/2000/svg" xmlns:xlink="http://www.w3.org/1999/xlink" x="0px" y="0px"
     width="440px" height="440px" viewBox="0 0 440 440" style="enable-background:new 0 0 440 440;"
     xml:space="preserve">
<g>
	<path style="fill:#cccccc" d="
        M 360, 6
        c -3.613 -3.617 -7.898 -5.424 -12.847 -5.424
        h -36.545 
        c -4.945, 0 -9.233, 1.807 -12.847, 5.424
        c -3.614, 3.621 -5.428,7.902 -5.428,12.85
        v 193.574
        c -0.948 -2.091 -2.19 -3.901 -3.717 -5.424
        L 86.343, 4.125
        c -3.617 -3.617 -6.663 -4.856 -9.136 -3.713
        c -2.474, 1.143 -3.711, 4.189 -3.711, 9.137
        v 420.262
        c 0, 4.948, 1.237, 7.994, 3.711, 9.138
        c 2.473, 1.14, 5.519 -0.1, 9.136 -3.724
        L 289, 232.5
        c 1.529 -1.711, 2.765 -3.521, 3.72 -5.424
        V 330

        h -80
        l 116.5, 110
        l 116.5, -110
        h -80

        V 18.683
        C 365.854, 13.73, 364.037, 9.45, 360.427, 5.833
        z"/>
</g>
</svg>
