<?xml version="1.0" encoding="UTF-8" standalone="no"?>
<!-- Created with Inkscape (http://www.inkscape.org/) -->

<svg
   xmlns:dc="http://purl.org/dc/elements/1.1/"
   xmlns:cc="http://creativecommons.org/ns#"
   xmlns:rdf="http://www.w3.org/1999/02/22-rdf-syntax-ns#"
   xmlns:svg="http://www.w3.org/2000/svg"
   xmlns="http://www.w3.org/2000/svg"
   xmlns:sodipodi="http://sodipodi.sourceforge.net/DTD/sodipodi-0.dtd"
   xmlns:inkscape="http://www.inkscape.org/namespaces/inkscape"
   width="28.334385mm"
   height="17.157795mm"
   viewBox="0 0 100.39743 60.795336"
   id="svg4258"
   version="1.1"
   inkscape:version="0.91 r13725"
   sodipodi:docname="10pc_gray_cooling.svg">
  <defs
     id="defs4260">
    <marker
       inkscape:stockid="Arrow2Lend"
       orient="auto"
       refY="0.0"
       refX="0.0"
       id="Arrow2Lend"
       style="overflow:visible;"
       inkscape:isstock="true">
      <path
         id="path4765"
         style="fill-rule:evenodd;stroke-width:0.625;stroke-linejoin:round;stroke:#e7e7e7;stroke-opacity:1;fill:#e7e7e7;fill-opacity:1"
         d="M 8.7185878,4.0337352 L -2.2072895,0.016013256 L 8.7185884,-4.0017078 C 6.9730900,-1.6296469 6.9831476,1.6157441 8.7185878,4.0337352 z "
         transform="scale(1.1) rotate(180) translate(1,0)" />
    </marker>
  </defs>
  <sodipodi:namedview
     id="base"
     pagecolor="#ffffff"
     bordercolor="#666666"
     borderopacity="1.0"
     inkscape:pageopacity="0.0"
     inkscape:pageshadow="2"
     inkscape:zoom="7.2684292"
     inkscape:cx="52.964218"
     inkscape:cy="33.966379"
     inkscape:document-units="px"
     inkscape:current-layer="g3801"
     showgrid="false"
     fit-margin-top="0"
     fit-margin-left="0"
     fit-margin-right="0"
     fit-margin-bottom="0"
     inkscape:window-width="1920"
     inkscape:window-height="1016"
     inkscape:window-x="0"
     inkscape:window-y="27"
     inkscape:window-maximized="1" />
  <metadata
     id="metadata4263">
    <rdf:RDF>
      <cc:Work
         rdf:about="">
        <dc:format>image/svg+xml</dc:format>
        <dc:type
           rdf:resource="http://purl.org/dc/dcmitype/StillImage" />
        <dc:title></dc:title>
      </cc:Work>
    </rdf:RDF>
  </metadata>
  <g
     inkscape:label="Layer 1"
     inkscape:groupmode="layer"
     id="layer1"
     transform="translate(-314.57941,-386.79956)">
    <g
       transform="matrix(0.05249044,0,0,0.05249044,339.38729,390.90715)"
       id="g3801"
       style="fill:#e6e6e6">
      <path
         inkscape:connector-curvature="0"
         d="m 544.69503,612.53319 0,-34.48226 c 0,-26.97673 -28.8292,-48.85914 -64.48942,-48.85914 -35.66022,0 -64.48943,21.88241 -64.48943,48.85914 l 0,34.48226 c -56.03748,24.7769 -95.05532,80.81439 -95.05532,145.99849 0,88.10853 71.43622,159.54475 159.54475,159.54475 88.10853,0 159.66052,-71.43622 159.66052,-159.66053 0,-65.06832 -39.13361,-121.10581 -95.1711,-145.88271 z"
         id="path3803"
         style="fill:#e6e6e6"
         sodipodi:nodetypes="cssscsssc" />
      <path
         inkscape:connector-curvature="0"
         d="m 694.8616,530.90834 0,-421.55474 c 0,-47.701332 -24.54534,-93.550188 -67.26814,-125.968569 -39.8283,-30.102783 -92.16083,-46.775093 -147.38785,-46.775093 -55.22703,0 -107.55956,16.67231 -147.38786,46.775093 -42.72279,32.302601 -67.26814,78.267237 -67.26814,125.968569 l 0,421.67052 c -62.63694,59.04776 -98.18138,140.7884 -98.18138,227.50756 0,83.59312 32.53416,162.09191 91.58192,221.13966 59.04777,59.04776 137.66234,91.58186 221.13968,91.58186 83.59311,0 162.0919,-32.5341 221.13967,-91.58186 59.04776,-59.04775 91.58193,-137.66232 91.58193,-221.13966 0.23156,-86.71916 -35.31288,-168.57558 -97.94983,-227.62334 z m -214.65599,456.2887 c -126.08435,0 -228.66537,-102.58101 -228.66537,-228.66536 0,-68.31016 30.21856,-132.56802 82.89843,-176.21705 l 15.16717,-12.62002 0,-460.34101 c 0,-48.048672 59.74245,-88.571651 130.59977,-88.571651 70.74154,0 130.59976,40.638759 130.59976,88.571651 l 0,460.34101 15.28295,12.62002 c 52.67987,43.64903 82.89843,107.90689 82.89843,176.21705 0,126.08435 -102.6968,228.66536 -228.78114,228.66536 z"
         id="path3805"
         style="fill:#e6e6e6" />
      <path
         inkscape:connector-curvature="0"
         d="m 787.78065,109.92998 50.48005,0 c 11.46221,0 20.72461,-9.2624 20.72461,-20.724612 0,-11.46222 -9.2624,-20.72461 -20.72461,-20.72461 l -50.48005,0 c -11.46221,0 -20.72461,9.26239 -20.72461,20.72461 0,11.462212 9.37818,20.724612 20.72461,20.724612 z"
         id="path3807"
         style="fill:#e6e6e6" />
      <path
         style="fill:none;fill-rule:evenodd;stroke:#e7e7e7;stroke-width:22.05733681;stroke-linecap:butt;stroke-linejoin:miter;stroke-miterlimit:4;stroke-dasharray:none;stroke-opacity:1"
         d="m 811.97614,110.12908 0,402.20662"
         id="path3938"
         inkscape:connector-curvature="0"
         sodipodi:nodetypes="cc" />
      <path
         style="fill:none;fill-rule:evenodd;stroke:#e7e7e7;stroke-width:22.05733681;stroke-linecap:butt;stroke-linejoin:miter;stroke-miterlimit:4;stroke-dasharray:none;stroke-opacity:1"
         d="M 916.56064,329.44045 814.89895,505.56361"
         id="path3938-8"
         inkscape:connector-curvature="0"
         sodipodi:nodetypes="cc" />
      <path
         style="fill:none;fill-rule:evenodd;stroke:#e7e7e7;stroke-width:22.05733681;stroke-linecap:butt;stroke-linejoin:miter;stroke-miterlimit:4;stroke-dasharray:none;stroke-opacity:1"
         d="M 711.71992,327.16444 811.86426,506.32227"
         id="path3938-8-2"
         inkscape:connector-curvature="0"
         sodipodi:nodetypes="cc" />
    </g>
  </g>
</svg>
