<?xml version="1.0" encoding="UTF-8" standalone="no"?>
<!-- Created with Inkscape (http://www.inkscape.org/) -->

<svg
   xmlns:dc="http://purl.org/dc/elements/1.1/"
   xmlns:cc="http://creativecommons.org/ns#"
   xmlns:rdf="http://www.w3.org/1999/02/22-rdf-syntax-ns#"
   xmlns:svg="http://www.w3.org/2000/svg"
   xmlns="http://www.w3.org/2000/svg"
   xmlns:sodipodi="http://sodipodi.sourceforge.net/DTD/sodipodi-0.dtd"
   xmlns:inkscape="http://www.inkscape.org/namespaces/inkscape"
   width="28.334385mm"
   height="17.157795mm"
   viewBox="0 0 100.39743 60.795336"
   id="svg4258"
   version="1.1"
   inkscape:version="0.91 r13725"
   sodipodi:docname="1opc_gray_trash.svg">
  <defs
     id="defs4260" />
  <sodipodi:namedview
     id="base"
     pagecolor="#ffffff"
     bordercolor="#666666"
     borderopacity="1.0"
     inkscape:pageopacity="0.0"
     inkscape:pageshadow="2"
     inkscape:zoom="3.959798"
     inkscape:cx="0.033092118"
     inkscape:cy="3.9680386"
     inkscape:document-units="px"
     inkscape:current-layer="layer1"
     showgrid="false"
     fit-margin-top="0"
     fit-margin-left="0"
     fit-margin-right="0"
     fit-margin-bottom="0"
     inkscape:window-width="1920"
     inkscape:window-height="1031"
     inkscape:window-x="0"
     inkscape:window-y="21"
     inkscape:window-maximized="1" />
  <metadata
     id="metadata4263">
    <rdf:RDF>
      <cc:Work
         rdf:about="">
        <dc:format>image/svg+xml</dc:format>
        <dc:type
           rdf:resource="http://purl.org/dc/dcmitype/StillImage" />
        <dc:title></dc:title>
      </cc:Work>
    </rdf:RDF>
  </metadata>
  <g
     inkscape:label="Layer 1"
     inkscape:groupmode="layer"
     id="layer1"
     transform="translate(-314.57941,-386.79956)">
    <path
       inkscape:connector-curvature="0"
       d="m 360.38859,392.07711 c -3.50153,0 -6.36643,2.86491 -6.36643,6.36644 l -6.36644,0 c -3.50154,0 -6.36644,2.8649 -6.36644,6.36644 l 44.56506,0 c 0,-3.50154 -2.8649,-6.36644 -6.36644,-6.36644 l -6.36644,0 c 0,-3.50153 -2.8649,-6.36644 -6.36643,-6.36644 l -6.36644,0 z m -12.73287,19.09931 0,30.62256 c 0,0.70031 0.50932,1.20963 1.20962,1.20963 l 29.4766,0 c 0.7003,0 1.20962,-0.50932 1.20962,-1.20963 l 0,-30.62256 -6.36643,0 0,22.28253 c 0,1.7826 -1.40062,3.18322 -3.18322,3.18322 -1.7826,0 -3.18322,-1.40062 -3.18322,-3.18322 l 0,-22.28253 -6.36644,0 0,22.28253 c 0,1.7826 -1.40061,3.18322 -3.18321,3.18322 -1.7826,0 -3.18322,-1.40062 -3.18322,-3.18322 l 0,-22.28253 -6.36643,0 z"
       id="path6667"
       style="fill:#cccccc" />
  </g>
</svg>
