<?xml version="1.0" encoding="UTF-8" standalone="no"?>
<!-- Created with Inkscape (http://www.inkscape.org/) -->

<svg
   xmlns:dc="http://purl.org/dc/elements/1.1/"
   xmlns:cc="http://creativecommons.org/ns#"
   xmlns:rdf="http://www.w3.org/1999/02/22-rdf-syntax-ns#"
   xmlns:svg="http://www.w3.org/2000/svg"
   xmlns="http://www.w3.org/2000/svg"
   xmlns:sodipodi="http://sodipodi.sourceforge.net/DTD/sodipodi-0.dtd"
   xmlns:inkscape="http://www.inkscape.org/namespaces/inkscape"
   width="28.334385mm"
   height="17.157795mm"
   viewBox="0 0 100.39743 60.795336"
   id="svg4258"
   version="1.1"
   inkscape:version="0.91 r13725"
   sodipodi:docname="10pc_gray_rename.svg">
  <defs
     id="defs4260" />
  <sodipodi:namedview
     id="base"
     pagecolor="#ffffff"
     bordercolor="#666666"
     borderopacity="1.0"
     inkscape:pageopacity="0.0"
     inkscape:pageshadow="2"
     inkscape:zoom="3.959798"
     inkscape:cx="13.332082"
     inkscape:cy="3.9680386"
     inkscape:document-units="px"
     inkscape:current-layer="layer1"
     showgrid="false"
     fit-margin-top="0"
     fit-margin-left="0"
     fit-margin-right="0"
     fit-margin-bottom="0"
     inkscape:window-width="1920"
     inkscape:window-height="1031"
     inkscape:window-x="0"
     inkscape:window-y="21"
     inkscape:window-maximized="1" />
  <metadata
     id="metadata4263">
    <rdf:RDF>
      <cc:Work
         rdf:about="">
        <dc:format>image/svg+xml</dc:format>
        <dc:type
           rdf:resource="http://purl.org/dc/dcmitype/StillImage" />
        <dc:title></dc:title>
      </cc:Work>
    </rdf:RDF>
  </metadata>
  <g
     inkscape:label="Layer 1"
     inkscape:groupmode="layer"
     id="layer1"
     transform="translate(-314.57941,-386.79956)">
    <path
       inkscape:connector-curvature="0"
       d="m 376.98854,394.1294 c -8.15457,0 -14.77277,6.6182 -14.77277,14.77279 0,1.8909 0.47273,3.66364 1.12273,5.37728 l -17.19552,17.01823 c -2.30455,2.30455 -2.30455,6.20458 0,8.50913 1.18183,1.18183 2.71819,1.65455 4.25456,1.65455 1.53638,0 3.07274,-0.53182 4.25456,-1.65455 l 17.01824,-17.19551 c 1.65456,0.64999 3.42729,1.12273 5.37729,1.12273 8.15457,0 14.77277,-6.6182 14.77277,-14.77278 0,-0.94545 0,-1.89092 -0.17727,-2.77728 l -5.73184,5.73183 -11.81821,0 0,-11.81822 5.73183,-5.73184 c -0.88636,-0.17727 -1.83182,-0.17727 -2.77728,-0.17727 z m -26.591,38.40921 c 1.65455,0 2.95456,1.30001 2.95456,2.95457 0,1.65455 -1.30001,2.95455 -2.95456,2.95455 -1.65454,0 -2.95456,-1.3 -2.95456,-2.95455 0,-1.65456 1.30002,-2.95457 2.95456,-2.95457 z"
       id="path4247"
       style="fill:#e6e6e6" />
  </g>
</svg>
